<?xml version="1.0" encoding="utf-8"?>
<!DOCTYPE svg PUBLIC "-//W3C//DTD SVG 1.1//EN" "http://www.w3.org/Graphics/SVG/1.1/DTD/svg11.dtd">
<svg class="sigma-svg" xmlns="http://www.w3.org/2000/svg" xmlns:xlink="http://www.w3.org/1999/xlink" version="1.1" width="1000px" height="1000px" x="0px" y="0px" style=""><style type="text/css">.sigma-node{fill: #ec5148}.sigma-edge{stroke: #ec5148}</style><g id="sigma-group-edges" class="sigma-group"><line class="sigma-edge" stroke-width="1" x1="487.69078920819146" y1="465.504428031057" x2="815.1772235678518" y2="426.2302887430896"></line><line class="sigma-edge" stroke-width="1" x1="487.69078920819146" y1="465.504428031057" x2="251.54094803011927" y2="606.2432832677623"></line><line class="sigma-edge" stroke-width="1" x1="487.69078920819146" y1="465.504428031057" x2="362.7646124571212" y2="561.6002722564228"></line><line class="sigma-edge" stroke-width="1" x1="487.69078920819146" y1="465.504428031057" x2="758.5470855258188" y2="337.6964865769695"></line><line class="sigma-edge" stroke-width="1" x1="487.69078920819146" y1="465.504428031057" x2="252.87913629108485" y2="308.4224289908211"></line><line class="sigma-edge" stroke-width="1" x1="487.69078920819146" y1="465.504428031057" x2="623.7114272174484" y2="579.9686605657357"></line><line class="sigma-edge" stroke-width="1" x1="487.69078920819146" y1="465.504428031057" x2="604.1579254301995" y2="210.81814626053034"></line><line class="sigma-edge" stroke-width="1" x1="487.69078920819146" y1="465.504428031057" x2="431.03932111791755" y2="200.39495395947972"></line><line class="sigma-edge" stroke-width="1" x1="487.69078920819146" y1="465.504428031057" x2="635.6226543524062" y2="777.484652511624"></line><line class="sigma-edge" stroke-width="1" x1="487.69078920819146" y1="465.504428031057" x2="333.48625742777574" y2="404.59206624969954"></line><line class="sigma-edge" stroke-width="1" x1="487.69078920819146" y1="465.504428031057" x2="643.1993499348894" y2="228.17785103655012"></line><line class="sigma-edge" stroke-width="1" x1="487.69078920819146" y1="465.504428031057" x2="280.0328291301228" y2="638.7327380431312"></line><line class="sigma-edge" stroke-width="1" x1="487.69078920819146" y1="465.504428031057" x2="343.88310044207014" y2="533.1041669056854"></line><line class="sigma-edge" stroke-width="1" x1="487.69078920819146" y1="465.504428031057" x2="394.1126830490347" y2="176.81934787700845"></line><line class="sigma-edge" stroke-width="1" x1="487.69078920819146" y1="465.504428031057" x2="327.7892906854951" y2="438.6055423361119"></line><line class="sigma-edge" stroke-width="1" x1="487.69078920819146" y1="465.504428031057" x2="413.3139833919238" y2="769.567172820427"></line><line class="sigma-edge" stroke-width="1" x1="487.69078920819146" y1="465.504428031057" x2="533.0682009301131" y2="640.9932475960309"></line><line class="sigma-edge" stroke-width="1" x1="487.69078920819146" y1="465.504428031057" x2="363.64955116161525" y2="206.12038211388347"></line><line class="sigma-edge" stroke-width="1" x1="487.69078920819146" y1="465.504428031057" x2="771.3150088419222" y2="527.0461051461499"></line><line class="sigma-edge" stroke-width="1" x1="487.69078920819146" y1="465.504428031057" x2="423.37146343993874" y2="624.4153815783977"></line><line class="sigma-edge" stroke-width="1" x1="487.69078920819146" y1="465.504428031057" x2="354.8961821723424" y2="753.669560689524"></line><line class="sigma-edge" stroke-width="1" x1="487.69078920819146" y1="465.504428031057" x2="463.5979087888064" y2="140.76053716032737"></line><line class="sigma-edge" stroke-width="1" x1="487.69078920819146" y1="465.504428031057" x2="697.2257288345634" y2="742.1358505123609"></line><line class="sigma-edge" stroke-width="1" x1="487.69078920819146" y1="465.504428031057" x2="629.3802476068208" y2="538.2095112261192"></line><line class="sigma-edge" stroke-width="1" x1="487.69078920819146" y1="465.504428031057" x2="464.64700600076696" y2="631.8424737316152"></line><line class="sigma-edge" stroke-width="1" x1="487.69078920819146" y1="465.504428031057" x2="209.5031286422044" y2="498.522547393675"></line><line class="sigma-edge" stroke-width="1" x1="487.69078920819146" y1="465.504428031057" x2="401.57468604166513" y2="316.8724675004124"></line><line class="sigma-edge" stroke-width="1" x1="487.69078920819146" y1="465.504428031057" x2="724.3919689530092" y2="469.3906491762078"></line><line class="sigma-edge" stroke-width="1" x1="487.69078920819146" y1="465.504428031057" x2="716.5643696066362" y2="397.624541082461"></line><line class="sigma-edge" stroke-width="1" x1="487.69078920819146" y1="465.504428031057" x2="567.3774474823173" y2="322.12418357684396"></line><line class="sigma-edge" stroke-width="1" x1="487.69078920819146" y1="465.504428031057" x2="230.37787009576715" y2="344.0567966133376"></line><line class="sigma-edge" stroke-width="1" x1="487.69078920819146" y1="465.504428031057" x2="700.3427867214259" y2="435.55732196089997"></line><line class="sigma-edge" stroke-width="1" x1="487.69078920819146" y1="465.504428031057" x2="593.620699271465" y2="343.71622162594747"></line><line class="sigma-edge" stroke-width="1" x1="487.69078920819146" y1="465.504428031057" x2="570.7217232511242" y2="623.301997572052"></line><line class="sigma-edge" stroke-width="1" x1="487.69078920819146" y1="465.504428031057" x2="205.61280283757657" y2="456.7308775270617"></line><line class="sigma-edge" stroke-width="1" x1="487.69078920819146" y1="465.504428031057" x2="436.2589945795616" y2="307.68633238830114"></line><line class="sigma-edge" stroke-width="1" x1="815.1772235678518" y1="426.2302887430896" x2="487.69078920819146" y2="465.504428031057"></line><line class="sigma-edge" stroke-width="1" x1="815.1772235678518" y1="426.2302887430896" x2="881.3279444546088" y2="341.65123220528983"></line><line class="sigma-edge" stroke-width="1" x1="815.1772235678518" y1="426.2302887430896" x2="724.3919689530092" y2="469.3906491762078"></line><line class="sigma-edge" stroke-width="1" x1="815.1772235678518" y1="426.2302887430896" x2="891.6880239402385" y2="501.30107706810065"></line><line class="sigma-edge" stroke-width="1" x1="815.1772235678518" y1="426.2302887430896" x2="716.5643696066362" y2="397.624541082461"></line><line class="sigma-edge" stroke-width="1" x1="815.1772235678518" y1="426.2302887430896" x2="700.3427867214259" y2="435.55732196089997"></line><line class="sigma-edge" stroke-width="1" x1="408.34624361668745" y1="7.874015748031525" x2="463.5979087888064" y2="140.76053716032737"></line><line class="sigma-edge" stroke-width="1" x1="408.34624361668745" y1="7.874015748031525" x2="367.81581255255117" y2="71.46308407090862"></line><line class="sigma-edge" stroke-width="1" x1="881.3279444546088" y1="341.65123220528983" x2="815.1772235678518" y2="426.2302887430896"></line><line class="sigma-edge" stroke-width="1" x1="881.3279444546088" y1="341.65123220528983" x2="758.5470855258188" y2="337.6964865769695"></line><line class="sigma-edge" stroke-width="1" x1="251.54094803011927" y1="606.2432832677623" x2="487.69078920819146" y2="465.504428031057"></line><line class="sigma-edge" stroke-width="1" x1="251.54094803011927" y1="606.2432832677623" x2="186.2140396850084" y2="678.7516583500794"></line><line class="sigma-edge" stroke-width="1" x1="186.2140396850084" y1="678.7516583500794" x2="251.54094803011927" y2="606.2432832677623"></line><line class="sigma-edge" stroke-width="1" x1="186.2140396850084" y1="678.7516583500794" x2="280.0328291301228" y2="638.7327380431312"></line><line class="sigma-edge" stroke-width="1" x1="362.7646124571212" y1="561.6002722564228" x2="487.69078920819146" y2="465.504428031057"></line><line class="sigma-edge" stroke-width="1" x1="362.7646124571212" y1="561.6002722564228" x2="343.88310044207014" y2="533.1041669056854"></line><line class="sigma-edge" stroke-width="1" x1="758.5470855258188" y1="337.6964865769695" x2="487.69078920819146" y2="465.504428031057"></line><line class="sigma-edge" stroke-width="1" x1="758.5470855258188" y1="337.6964865769695" x2="881.3279444546088" y2="341.65123220528983"></line><line class="sigma-edge" stroke-width="1" x1="252.87913629108485" y1="308.4224289908211" x2="487.69078920819146" y2="465.504428031057"></line><line class="sigma-edge" stroke-width="1" x1="252.87913629108485" y1="308.4224289908211" x2="152.64701409803848" y2="281.08470938713657"></line><line class="sigma-edge" stroke-width="1" x1="623.7114272174484" y1="579.9686605657357" x2="487.69078920819146" y2="465.504428031057"></line><line class="sigma-edge" stroke-width="1" x1="623.7114272174484" y1="579.9686605657357" x2="629.3802476068208" y2="538.2095112261192"></line><line class="sigma-edge" stroke-width="1" x1="604.1579254301995" y1="210.81814626053034" x2="487.69078920819146" y2="465.504428031057"></line><line class="sigma-edge" stroke-width="1" x1="604.1579254301995" y1="210.81814626053034" x2="672.2993244753219" y2="133.21364136643746"></line><line class="sigma-edge" stroke-width="1" x1="734.2529176638" y1="945.1239592391838" x2="635.6226543524062" y2="777.484652511624"></line><line class="sigma-edge" stroke-width="1" x1="734.2529176638" y1="945.1239592391838" x2="803.5529638576296" y2="992.1259842519685"></line><line class="sigma-edge" stroke-width="1" x1="431.03932111791755" y1="200.39495395947972" x2="487.69078920819146" y2="465.504428031057"></line><line class="sigma-edge" stroke-width="1" x1="431.03932111791755" y1="200.39495395947972" x2="367.81581255255117" y2="71.46308407090862"></line><line class="sigma-edge" stroke-width="1" x1="108.31197605976149" y1="485.44201906719445" x2="209.5031286422044" y2="498.522547393675"></line><line class="sigma-edge" stroke-width="1" x1="108.31197605976149" y1="485.44201906719445" x2="205.61280283757657" y2="456.7308775270617"></line><line class="sigma-edge" stroke-width="1" x1="635.6226543524062" y1="777.484652511624" x2="487.69078920819146" y2="465.504428031057"></line><line class="sigma-edge" stroke-width="1" x1="635.6226543524062" y1="777.484652511624" x2="734.2529176638" y2="945.1239592391838"></line><line class="sigma-edge" stroke-width="1" x1="333.48625742777574" y1="404.59206624969954" x2="487.69078920819146" y2="465.504428031057"></line><line class="sigma-edge" stroke-width="1" x1="333.48625742777574" y1="404.59206624969954" x2="327.7892906854951" y2="438.6055423361119"></line><line class="sigma-edge" stroke-width="1" x1="643.1993499348894" y1="228.17785103655012" x2="487.69078920819146" y2="465.504428031057"></line><line class="sigma-edge" stroke-width="1" x1="643.1993499348894" y1="228.17785103655012" x2="672.2993244753219" y2="133.21364136643746"></line><line class="sigma-edge" stroke-width="1" x1="280.0328291301228" y1="638.7327380431312" x2="487.69078920819146" y2="465.504428031057"></line><line class="sigma-edge" stroke-width="1" x1="280.0328291301228" y1="638.7327380431312" x2="186.2140396850084" y2="678.7516583500794"></line><line class="sigma-edge" stroke-width="1" x1="343.88310044207014" y1="533.1041669056854" x2="487.69078920819146" y2="465.504428031057"></line><line class="sigma-edge" stroke-width="1" x1="343.88310044207014" y1="533.1041669056854" x2="362.7646124571212" y2="561.6002722564228"></line><line class="sigma-edge" stroke-width="1" x1="351.57597337580273" y1="912.4344067254603" x2="413.3139833919238" y2="769.567172820427"></line><line class="sigma-edge" stroke-width="1" x1="351.57597337580273" y1="912.4344067254603" x2="306.9806002019478" y2="899.7057773060354"></line><line class="sigma-edge" stroke-width="1" x1="394.1126830490347" y1="176.81934787700845" x2="487.69078920819146" y2="465.504428031057"></line><line class="sigma-edge" stroke-width="1" x1="394.1126830490347" y1="176.81934787700845" x2="367.81581255255117" y2="71.46308407090862"></line><line class="sigma-edge" stroke-width="1" x1="327.7892906854951" y1="438.6055423361119" x2="487.69078920819146" y2="465.504428031057"></line><line class="sigma-edge" stroke-width="1" x1="327.7892906854951" y1="438.6055423361119" x2="333.48625742777574" y2="404.59206624969954"></line><line class="sigma-edge" stroke-width="1" x1="413.3139833919238" y1="769.567172820427" x2="487.69078920819146" y2="465.504428031057"></line><line class="sigma-edge" stroke-width="1" x1="413.3139833919238" y1="769.567172820427" x2="351.57597337580273" y2="912.4344067254603"></line><line class="sigma-edge" stroke-width="1" x1="533.0682009301131" y1="640.9932475960309" x2="487.69078920819146" y2="465.504428031057"></line><line class="sigma-edge" stroke-width="1" x1="533.0682009301131" y1="640.9932475960309" x2="570.7217232511242" y2="623.301997572052"></line><line class="sigma-edge" stroke-width="1" x1="363.64955116161525" y1="206.12038211388347" x2="487.69078920819146" y2="465.504428031057"></line><line class="sigma-edge" stroke-width="1" x1="363.64955116161525" y1="206.12038211388347" x2="367.81581255255117" y2="71.46308407090862"></line><line class="sigma-edge" stroke-width="1" x1="771.3150088419222" y1="527.0461051461499" x2="487.69078920819146" y2="465.504428031057"></line><line class="sigma-edge" stroke-width="1" x1="771.3150088419222" y1="527.0461051461499" x2="891.6880239402385" y2="501.30107706810065"></line><line class="sigma-edge" stroke-width="1" x1="423.37146343993874" y1="624.4153815783977" x2="487.69078920819146" y2="465.504428031057"></line><line class="sigma-edge" stroke-width="1" x1="423.37146343993874" y1="624.4153815783977" x2="464.64700600076696" y2="631.8424737316152"></line><line class="sigma-edge" stroke-width="1" x1="354.8961821723424" y1="753.669560689524" x2="487.69078920819146" y2="465.504428031057"></line><line class="sigma-edge" stroke-width="1" x1="354.8961821723424" y1="753.669560689524" x2="306.9806002019478" y2="899.7057773060354"></line><line class="sigma-edge" stroke-width="1" x1="463.5979087888064" y1="140.76053716032737" x2="487.69078920819146" y2="465.504428031057"></line><line class="sigma-edge" stroke-width="1" x1="463.5979087888064" y1="140.76053716032737" x2="408.34624361668745" y2="7.874015748031525"></line><line class="sigma-edge" stroke-width="1" x1="803.5529638576296" y1="992.1259842519685" x2="734.2529176638" y2="945.1239592391838"></line><line class="sigma-edge" stroke-width="1" x1="803.5529638576296" y1="992.1259842519685" x2="796.8892919733813" y2="909.7733797086714"></line><line class="sigma-edge" stroke-width="1" x1="796.8892919733813" y1="909.7733797086714" x2="803.5529638576296" y2="992.1259842519685"></line><line class="sigma-edge" stroke-width="1" x1="796.8892919733813" y1="909.7733797086714" x2="697.2257288345634" y2="742.1358505123609"></line><line class="sigma-edge" stroke-width="1" x1="697.2257288345634" y1="742.1358505123609" x2="487.69078920819146" y2="465.504428031057"></line><line class="sigma-edge" stroke-width="1" x1="697.2257288345634" y1="742.1358505123609" x2="796.8892919733813" y2="909.7733797086714"></line><line class="sigma-edge" stroke-width="1" x1="629.3802476068208" y1="538.2095112261192" x2="487.69078920819146" y2="465.504428031057"></line><line class="sigma-edge" stroke-width="1" x1="629.3802476068208" y1="538.2095112261192" x2="623.7114272174484" y2="579.9686605657357"></line><line class="sigma-edge" stroke-width="1" x1="464.64700600076696" y1="631.8424737316152" x2="487.69078920819146" y2="465.504428031057"></line><line class="sigma-edge" stroke-width="1" x1="464.64700600076696" y1="631.8424737316152" x2="423.37146343993874" y2="624.4153815783977"></line><line class="sigma-edge" stroke-width="1" x1="209.5031286422044" y1="498.522547393675" x2="487.69078920819146" y2="465.504428031057"></line><line class="sigma-edge" stroke-width="1" x1="209.5031286422044" y1="498.522547393675" x2="108.31197605976149" y2="485.44201906719445"></line><line class="sigma-edge" stroke-width="1" x1="401.57468604166513" y1="316.8724675004124" x2="487.69078920819146" y2="465.504428031057"></line><line class="sigma-edge" stroke-width="1" x1="401.57468604166513" y1="316.8724675004124" x2="436.2589945795616" y2="307.68633238830114"></line><line class="sigma-edge" stroke-width="1" x1="152.64701409803848" y1="281.08470938713657" x2="252.87913629108485" y2="308.4224289908211"></line><line class="sigma-edge" stroke-width="1" x1="152.64701409803848" y1="281.08470938713657" x2="230.37787009576715" y2="344.0567966133376"></line><line class="sigma-edge" stroke-width="1" x1="306.9806002019478" y1="899.7057773060354" x2="351.57597337580273" y2="912.4344067254603"></line><line class="sigma-edge" stroke-width="1" x1="306.9806002019478" y1="899.7057773060354" x2="354.8961821723424" y2="753.669560689524"></line><line class="sigma-edge" stroke-width="1" x1="724.3919689530092" y1="469.3906491762078" x2="487.69078920819146" y2="465.504428031057"></line><line class="sigma-edge" stroke-width="1" x1="724.3919689530092" y1="469.3906491762078" x2="815.1772235678518" y2="426.2302887430896"></line><line class="sigma-edge" stroke-width="1" x1="367.81581255255117" y1="71.46308407090862" x2="408.34624361668745" y2="7.874015748031525"></line><line class="sigma-edge" stroke-width="1" x1="367.81581255255117" y1="71.46308407090862" x2="431.03932111791755" y2="200.39495395947972"></line><line class="sigma-edge" stroke-width="1" x1="367.81581255255117" y1="71.46308407090862" x2="394.1126830490347" y2="176.81934787700845"></line><line class="sigma-edge" stroke-width="1" x1="367.81581255255117" y1="71.46308407090862" x2="363.64955116161525" y2="206.12038211388347"></line><line class="sigma-edge" stroke-width="1" x1="891.6880239402385" y1="501.30107706810065" x2="815.1772235678518" y2="426.2302887430896"></line><line class="sigma-edge" stroke-width="1" x1="891.6880239402385" y1="501.30107706810065" x2="771.3150088419222" y2="527.0461051461499"></line><line class="sigma-edge" stroke-width="1" x1="716.5643696066362" y1="397.624541082461" x2="487.69078920819146" y2="465.504428031057"></line><line class="sigma-edge" stroke-width="1" x1="716.5643696066362" y1="397.624541082461" x2="815.1772235678518" y2="426.2302887430896"></line><line class="sigma-edge" stroke-width="1" x1="567.3774474823173" y1="322.12418357684396" x2="487.69078920819146" y2="465.504428031057"></line><line class="sigma-edge" stroke-width="1" x1="567.3774474823173" y1="322.12418357684396" x2="593.620699271465" y2="343.71622162594747"></line><line class="sigma-edge" stroke-width="1" x1="230.37787009576715" y1="344.0567966133376" x2="487.69078920819146" y2="465.504428031057"></line><line class="sigma-edge" stroke-width="1" x1="230.37787009576715" y1="344.0567966133376" x2="152.64701409803848" y2="281.08470938713657"></line><line class="sigma-edge" stroke-width="1" x1="700.3427867214259" y1="435.55732196089997" x2="487.69078920819146" y2="465.504428031057"></line><line class="sigma-edge" stroke-width="1" x1="700.3427867214259" y1="435.55732196089997" x2="815.1772235678518" y2="426.2302887430896"></line><line class="sigma-edge" stroke-width="1" x1="593.620699271465" y1="343.71622162594747" x2="487.69078920819146" y2="465.504428031057"></line><line class="sigma-edge" stroke-width="1" x1="593.620699271465" y1="343.71622162594747" x2="567.3774474823173" y2="322.12418357684396"></line><line class="sigma-edge" stroke-width="1" x1="570.7217232511242" y1="623.301997572052" x2="487.69078920819146" y2="465.504428031057"></line><line class="sigma-edge" stroke-width="1" x1="570.7217232511242" y1="623.301997572052" x2="533.0682009301131" y2="640.9932475960309"></line><line class="sigma-edge" stroke-width="1" x1="205.61280283757657" y1="456.7308775270617" x2="487.69078920819146" y2="465.504428031057"></line><line class="sigma-edge" stroke-width="1" x1="205.61280283757657" y1="456.7308775270617" x2="108.31197605976149" y2="485.44201906719445"></line><line class="sigma-edge" stroke-width="1" x1="672.2993244753219" y1="133.21364136643746" x2="604.1579254301995" y2="210.81814626053034"></line><line class="sigma-edge" stroke-width="1" x1="672.2993244753219" y1="133.21364136643746" x2="643.1993499348894" y2="228.17785103655012"></line><line class="sigma-edge" stroke-width="1" x1="436.2589945795616" y1="307.68633238830114" x2="487.69078920819146" y2="465.504428031057"></line><line class="sigma-edge" stroke-width="1" x1="436.2589945795616" y1="307.68633238830114" x2="401.57468604166513" y2="316.8724675004124"></line></g><g id="sigma-group-nodes" class="sigma-group"><circle class="sigma-node" cx="408.34624361668745" cy="7.874015748031525" r="8"></circle><circle class="sigma-node" cx="367.81581255255117" cy="71.46308407090862" r="8"></circle><circle class="sigma-node" cx="394.1126830490347" cy="176.81934787700845" r="8"></circle><circle class="sigma-node" cx="363.64955116161525" cy="206.12038211388347" r="8"></circle><circle class="sigma-node" cx="431.03932111791755" cy="200.39495395947972" r="8"></circle><circle class="sigma-node" cx="463.5979087888064" cy="140.76053716032737" r="8"></circle><circle class="sigma-node" cx="152.64701409803848" cy="281.08470938713657" r="8"></circle><circle class="sigma-node" cx="252.87913629108485" cy="308.4224289908211" r="8"></circle><circle class="sigma-node" cx="230.37787009576715" cy="344.0567966133376" r="8"></circle><circle class="sigma-node" cx="108.31197605976149" cy="485.44201906719445" r="8"></circle><circle class="sigma-node" cx="209.5031286422044" cy="498.522547393675" r="8"></circle><circle class="sigma-node" cx="205.61280283757657" cy="456.7308775270617" r="8"></circle><circle class="sigma-node" cx="401.57468604166513" cy="316.8724675004124" r="8"></circle><circle class="sigma-node" cx="436.2589945795616" cy="307.68633238830114" r="8"></circle><circle class="sigma-node" cx="333.48625742777574" cy="404.59206624969954" r="8"></circle><circle class="sigma-node" cx="327.7892906854951" cy="438.6055423361119" r="8"></circle><circle class="sigma-node" cx="487.69078920819146" cy="465.504428031057" r="8"></circle><circle class="sigma-node" cx="672.2993244753219" cy="133.21364136643746" r="8"></circle><circle class="sigma-node" cx="604.1579254301995" cy="210.81814626053034" r="8"></circle><circle class="sigma-node" cx="643.1993499348894" cy="228.17785103655012" r="8"></circle><circle class="sigma-node" cx="567.3774474823173" cy="322.12418357684396" r="8"></circle><circle class="sigma-node" cx="593.620699271465" cy="343.71622162594747" r="8"></circle><circle class="sigma-node" cx="700.3427867214259" cy="435.55732196089997" r="8"></circle><circle class="sigma-node" cx="758.5470855258188" cy="337.6964865769695" r="8"></circle><circle class="sigma-node" cx="881.3279444546088" cy="341.65123220528983" r="8"></circle><circle class="sigma-node" cx="716.5643696066362" cy="397.624541082461" r="8"></circle><circle class="sigma-node" cx="724.3919689530092" cy="469.3906491762078" r="8"></circle><circle class="sigma-node" cx="815.1772235678518" cy="426.2302887430896" r="8"></circle><circle class="sigma-node" cx="891.6880239402385" cy="501.30107706810065" r="8"></circle><circle class="sigma-node" cx="251.54094803011927" cy="606.2432832677623" r="8"></circle><circle class="sigma-node" cx="186.2140396850084" cy="678.7516583500794" r="8"></circle><circle class="sigma-node" cx="280.0328291301228" cy="638.7327380431312" r="8"></circle><circle class="sigma-node" cx="343.88310044207014" cy="533.1041669056854" r="8"></circle><circle class="sigma-node" cx="362.7646124571212" cy="561.6002722564228" r="8"></circle><circle class="sigma-node" cx="423.37146343993874" cy="624.4153815783977" r="8"></circle><circle class="sigma-node" cx="354.8961821723424" cy="753.669560689524" r="8"></circle><circle class="sigma-node" cx="464.64700600076696" cy="631.8424737316152" r="8"></circle><circle class="sigma-node" cx="306.9806002019478" cy="899.7057773060354" r="8"></circle><circle class="sigma-node" cx="413.3139833919238" cy="769.567172820427" r="8"></circle><circle class="sigma-node" cx="351.57597337580273" cy="912.4344067254603" r="8"></circle><circle class="sigma-node" cx="570.7217232511242" cy="623.301997572052" r="8"></circle><circle class="sigma-node" cx="629.3802476068208" cy="538.2095112261192" r="8"></circle><circle class="sigma-node" cx="623.7114272174484" cy="579.9686605657357" r="8"></circle><circle class="sigma-node" cx="533.0682009301131" cy="640.9932475960309" r="8"></circle><circle class="sigma-node" cx="697.2257288345634" cy="742.1358505123609" r="8"></circle><circle class="sigma-node" cx="771.3150088419222" cy="527.0461051461499" r="8"></circle><circle class="sigma-node" cx="635.6226543524062" cy="777.484652511624" r="8"></circle><circle class="sigma-node" cx="796.8892919733813" cy="909.7733797086714" r="8"></circle><circle class="sigma-node" cx="734.2529176638" cy="945.1239592391838" r="8"></circle><circle class="sigma-node" cx="803.5529638576296" cy="992.1259842519685" r="8"></circle></g></svg>