<?xml version="1.0" encoding="utf-8"?>
<!DOCTYPE svg PUBLIC "-//W3C//DTD SVG 1.1//EN" "http://www.w3.org/Graphics/SVG/1.1/DTD/svg11.dtd">
<svg class="sigma-svg" xmlns="http://www.w3.org/2000/svg" xmlns:xlink="http://www.w3.org/1999/xlink" version="1.1" width="1000px" height="1000px" x="0px" y="0px" style=""><style type="text/css">.sigma-node{fill: #ec5148}.sigma-edge{stroke: #ec5148}</style><g id="sigma-group-edges" class="sigma-group"><line class="sigma-edge" stroke-width="1" x1="707.6996135447214" y1="7.874015748031525" x2="98.89105724406784" y2="109.47983251389593"></line><line class="sigma-edge" stroke-width="1" x1="707.6996135447214" y1="7.874015748031525" x2="9.326713234982094" y2="720.7485863554282"></line><line class="sigma-edge" stroke-width="1" x1="707.6996135447214" y1="7.874015748031525" x2="990.6732867650179" y2="553.6403460993656"></line><line class="sigma-edge" stroke-width="1" x1="707.6996135447214" y1="7.874015748031525" x2="561.791839294768" y2="992.1259842519685"></line><line class="sigma-edge" stroke-width="1" x1="98.89105724406784" y1="109.47983251389593" x2="707.6996135447214" y2="7.874015748031525"></line><line class="sigma-edge" stroke-width="1" x1="98.89105724406784" y1="109.47983251389593" x2="9.326713234982094" y2="720.7485863554282"></line><line class="sigma-edge" stroke-width="1" x1="98.89105724406784" y1="109.47983251389593" x2="990.6732867650179" y2="553.6403460993656"></line><line class="sigma-edge" stroke-width="1" x1="98.89105724406784" y1="109.47983251389593" x2="561.791839294768" y2="992.1259842519685"></line><line class="sigma-edge" stroke-width="1" x1="9.326713234982094" y1="720.7485863554282" x2="707.6996135447214" y2="7.874015748031525"></line><line class="sigma-edge" stroke-width="1" x1="9.326713234982094" y1="720.7485863554282" x2="98.89105724406784" y2="109.47983251389593"></line><line class="sigma-edge" stroke-width="1" x1="9.326713234982094" y1="720.7485863554282" x2="990.6732867650179" y2="553.6403460993656"></line><line class="sigma-edge" stroke-width="1" x1="9.326713234982094" y1="720.7485863554282" x2="561.791839294768" y2="992.1259842519685"></line><line class="sigma-edge" stroke-width="1" x1="990.6732867650179" y1="553.6403460993656" x2="707.6996135447214" y2="7.874015748031525"></line><line class="sigma-edge" stroke-width="1" x1="990.6732867650179" y1="553.6403460993656" x2="98.89105724406784" y2="109.47983251389593"></line><line class="sigma-edge" stroke-width="1" x1="990.6732867650179" y1="553.6403460993656" x2="9.326713234982094" y2="720.7485863554282"></line><line class="sigma-edge" stroke-width="1" x1="990.6732867650179" y1="553.6403460993656" x2="561.791839294768" y2="992.1259842519685"></line><line class="sigma-edge" stroke-width="1" x1="561.791839294768" y1="992.1259842519685" x2="707.6996135447214" y2="7.874015748031525"></line><line class="sigma-edge" stroke-width="1" x1="561.791839294768" y1="992.1259842519685" x2="98.89105724406784" y2="109.47983251389593"></line><line class="sigma-edge" stroke-width="1" x1="561.791839294768" y1="992.1259842519685" x2="9.326713234982094" y2="720.7485863554282"></line><line class="sigma-edge" stroke-width="1" x1="561.791839294768" y1="992.1259842519685" x2="990.6732867650179" y2="553.6403460993656"></line></g><g id="sigma-group-nodes" class="sigma-group"><circle class="sigma-node" cx="98.89105724406784" cy="109.47983251389593" r="8"></circle><circle class="sigma-node" cx="707.6996135447214" cy="7.874015748031525" r="8"></circle><circle class="sigma-node" cx="9.326713234982094" cy="720.7485863554282" r="8"></circle><circle class="sigma-node" cx="990.6732867650179" cy="553.6403460993656" r="8"></circle><circle class="sigma-node" cx="561.791839294768" cy="992.1259842519685" r="8"></circle></g></svg>